<svg width="172" height="258" viewBox="0 0 172 258" fill="none" xmlns="http://www.w3.org/2000/svg">
<g clip-path="url(#clip0_102_3)">
<path d="M86 171.746C133.496 171.746 172 133.299 172 85.8728C172 38.4466 133.496 0 86 0C38.5035 0 0 38.4466 0 85.8728C0 133.299 38.5035 171.746 86 171.746Z" fill="#7CBE8B"/>
<path d="M172 85.8728C172 104.028 166.238 121.716 155.539 136.397C144.842 151.077 129.76 161.994 112.46 167.58C95.1588 173.166 76.5308 173.133 59.2506 167.486C41.9702 161.839 26.9269 150.868 16.2814 136.15C5.63593 121.432 -0.0639325 103.724 0.000540991 85.5682C0.0650146 67.413 5.8905 49.7453 16.6403 35.1029C27.39 20.4604 42.5108 9.59668 59.8309 4.07219C77.1508 -1.45234 95.7788 -1.35341 113.039 4.35478L86 85.8728H172Z" fill="#7CBE8B"/>
<path d="M86 0C95.7153 1.15686e-07 105.361 1.64387 114.527 4.86181L86 85.8728V0Z" fill="#D55860"/>
<path d="M86.0001 147.054C119.839 147.054 147.272 119.662 147.272 85.8728C147.272 52.0835 119.839 24.6918 86.0001 24.6918C52.1607 24.6918 24.7285 52.0835 24.7285 85.8728C24.7285 119.662 52.1607 147.054 86.0001 147.054Z" fill="white"/>
<path d="M77.6576 227.754V228.201C77.6576 228.816 77.5773 229.367 77.4168 229.856C77.2562 230.344 77.0269 230.76 76.7288 231.102C76.4335 231.445 76.079 231.708 75.6647 231.891C75.2503 232.069 74.7912 232.159 74.2873 232.159C73.7871 232.159 73.3299 232.069 72.9156 231.891C72.505 231.708 72.1485 231.445 71.8462 231.102C71.5438 230.76 71.3086 230.344 71.1407 229.856C70.9765 229.367 70.8943 228.816 70.8943 228.201V227.754C70.8943 227.138 70.9765 226.589 71.1407 226.104C71.3049 225.616 71.5363 225.2 71.8349 224.858C72.1373 224.511 72.4937 224.249 72.9043 224.069C73.3186 223.887 73.7759 223.795 74.2761 223.795C74.78 223.795 75.2391 223.887 75.6534 224.069C76.0677 224.249 76.4242 224.511 76.7226 224.858C77.0215 225.2 77.2509 225.616 77.4114 226.104C77.5758 226.589 77.6576 227.138 77.6576 227.754ZM76.2525 228.201V227.742C76.2525 227.288 76.2077 226.887 76.1181 226.541C76.0323 226.19 75.9035 225.897 75.7318 225.663C75.5638 225.424 75.3567 225.245 75.1103 225.126C74.864 225.003 74.5859 224.942 74.2761 224.942C73.9663 224.942 73.6901 225.003 73.4475 225.126C73.2048 225.245 72.9977 225.424 72.826 225.663C72.658 225.897 72.5292 226.19 72.4396 226.541C72.35 226.887 72.3052 227.288 72.3052 227.742V228.201C72.3052 228.656 72.35 229.058 72.4396 229.409C72.5292 229.759 72.6599 230.055 72.8315 230.298C73.007 230.536 73.2161 230.717 73.4586 230.84C73.7013 230.959 73.9774 231.018 74.2873 231.018C74.6008 231.018 74.8789 230.959 75.1215 230.84C75.3641 230.717 75.5695 230.536 75.7374 230.298C75.9054 230.055 76.0323 229.759 76.1181 229.409C76.2077 229.058 76.2525 228.656 76.2525 228.201ZM82.1884 223.907V232.047H80.7834V223.907H82.1884ZM85.5145 227.468V228.581H81.8299V227.468H85.5145ZM85.9793 223.907V225.026H81.8299V223.907H85.9793ZM90.2243 223.907V232.047H88.8192V223.907H90.2243ZM93.5496 227.468V228.581H89.8657V227.468H93.5496ZM94.0144 223.907V225.026H89.8657V223.907H94.0144ZM101.961 230.934V232.047H97.8679V230.934H101.961ZM98.2601 223.907V232.047H96.8543V223.907H98.2601ZM106.268 223.907V232.047H104.862V223.907H106.268ZM116.201 223.907V232.047H114.796L111.139 226.216V232.047H109.734V223.907H111.139L114.807 229.75V223.907H116.201ZM124.931 230.934V232.047H120.603V230.934H124.931ZM121.001 223.907V232.047H119.595V223.907H121.001ZM124.366 227.306V228.403H120.603V227.306H124.366ZM124.903 223.907V225.026H120.603V223.907H124.903ZM132.268 228.833V228.738C132.268 227.94 132.354 227.217 132.526 226.568C132.701 225.916 132.928 225.346 133.208 224.858C133.489 224.366 133.787 223.959 134.104 223.639C134.425 223.315 134.733 223.081 135.028 222.94L135.297 223.712C135.08 223.872 134.864 224.094 134.648 224.377C134.434 224.66 134.239 225.009 134.06 225.423C133.884 225.832 133.743 226.313 133.634 226.864C133.529 227.412 133.477 228.033 133.477 228.726V228.844C133.477 229.537 133.529 230.16 133.634 230.712C133.743 231.259 133.884 231.74 134.06 232.153C134.239 232.567 134.434 232.918 134.648 233.205C134.864 233.495 135.08 233.727 135.297 233.898L135.028 234.636C134.733 234.491 134.425 234.256 134.104 233.931C133.787 233.611 133.489 233.205 133.208 232.713C132.928 232.224 132.701 231.656 132.526 231.008C132.354 230.355 132.268 229.63 132.268 228.833ZM139.273 228.263L138.199 227.999L138.64 223.907H143.036V225.048H139.76L139.536 227.044C139.663 226.969 139.839 226.896 140.063 226.826C140.287 226.751 140.542 226.714 140.83 226.714C141.214 226.714 141.557 226.777 141.86 226.904C142.166 227.027 142.425 227.208 142.638 227.446C142.851 227.681 143.014 227.968 143.125 228.307C143.238 228.643 143.294 229.021 143.294 229.442C143.294 229.818 143.238 230.171 143.125 230.499C143.017 230.827 142.853 231.115 142.632 231.365C142.412 231.615 142.135 231.811 141.798 231.952C141.467 232.09 141.072 232.159 140.617 232.159C140.277 232.159 139.951 232.111 139.637 232.014C139.328 231.913 139.049 231.766 138.803 231.572C138.556 231.375 138.359 231.132 138.209 230.845C138.06 230.554 137.975 230.221 137.952 229.844H139.273C139.307 230.109 139.38 230.334 139.492 230.521C139.607 230.704 139.76 230.844 139.951 230.941C140.141 231.037 140.361 231.086 140.611 231.086C140.839 231.086 141.035 231.047 141.199 230.968C141.363 230.886 141.5 230.771 141.608 230.621C141.72 230.469 141.802 230.29 141.854 230.085C141.911 229.88 141.938 229.653 141.938 229.403C141.938 229.164 141.907 228.947 141.843 228.749C141.784 228.551 141.692 228.38 141.569 228.235C141.45 228.089 141.298 227.977 141.116 227.899C140.932 227.817 140.721 227.776 140.483 227.776C140.162 227.776 139.915 227.822 139.743 227.916C139.575 228.009 139.419 228.125 139.273 228.263ZM146.038 225.903V225.473C146.038 225.163 146.105 224.882 146.24 224.629C146.374 224.375 146.57 224.172 146.828 224.019C147.085 223.866 147.395 223.79 147.757 223.79C148.13 223.79 148.444 223.866 148.697 224.019C148.955 224.172 149.151 224.375 149.285 224.629C149.42 224.882 149.487 225.163 149.487 225.473V225.903C149.487 226.205 149.42 226.483 149.285 226.736C149.155 226.99 148.96 227.193 148.703 227.345C148.449 227.499 148.138 227.575 147.768 227.575C147.402 227.575 147.089 227.499 146.828 227.345C146.57 227.193 146.374 226.99 146.24 226.736C146.105 226.483 146.038 226.205 146.038 225.903ZM146.973 225.473V225.903C146.973 226.052 147.001 226.194 147.057 226.328C147.117 226.462 147.206 226.571 147.326 226.652C147.445 226.735 147.593 226.775 147.768 226.775C147.947 226.775 148.093 226.735 148.205 226.652C148.321 226.571 148.406 226.462 148.462 226.328C148.519 226.194 148.546 226.052 148.546 225.903V225.473C148.546 225.32 148.516 225.177 148.457 225.042C148.401 224.904 148.315 224.794 148.199 224.713C148.084 224.63 147.936 224.589 147.757 224.589C147.585 224.589 147.44 224.63 147.32 224.713C147.204 224.794 147.117 224.904 147.057 225.042C147.001 225.177 146.973 225.32 146.973 225.473ZM149.969 230.488V230.051C149.969 229.746 150.036 229.467 150.17 229.213C150.308 228.96 150.506 228.756 150.764 228.603C151.021 228.451 151.331 228.374 151.693 228.374C152.066 228.374 152.38 228.451 152.634 228.603C152.891 228.756 153.085 228.96 153.216 229.213C153.351 229.467 153.417 229.746 153.417 230.051V230.488C153.417 230.793 153.351 231.073 153.216 231.326C153.085 231.579 152.893 231.782 152.639 231.936C152.385 232.089 152.075 232.165 151.71 232.165C151.34 232.165 151.025 232.089 150.764 231.936C150.506 231.782 150.308 231.579 150.17 231.326C150.036 231.073 149.969 230.793 149.969 230.488ZM150.909 230.051V230.488C150.909 230.637 150.939 230.778 150.998 230.912C151.062 231.047 151.154 231.157 151.273 231.242C151.392 231.324 151.536 231.365 151.704 231.365C151.894 231.365 152.047 231.324 152.163 231.242C152.279 231.157 152.361 231.048 152.41 230.918C152.462 230.784 152.488 230.641 152.488 230.488V230.051C152.488 229.899 152.458 229.755 152.398 229.621C152.342 229.487 152.254 229.379 152.135 229.296C152.02 229.215 151.872 229.173 151.693 229.173C151.517 229.173 151.372 229.215 151.256 229.296C151.141 229.379 151.053 229.487 150.993 229.621C150.937 229.755 150.909 229.899 150.909 230.051ZM152.029 225.07L148.048 231.432L147.36 231.035L151.34 224.673L152.029 225.07ZM158.939 228.738V228.833C158.939 229.619 158.849 230.337 158.67 230.985C158.495 231.634 158.265 232.204 157.982 232.696C157.702 233.188 157.398 233.598 157.069 233.926C156.744 234.254 156.433 234.491 156.134 234.636L155.859 233.898C156.076 233.734 156.291 233.508 156.504 233.221C156.72 232.938 156.916 232.586 157.092 232.165C157.271 231.747 157.412 231.263 157.517 230.712C157.625 230.16 157.68 229.537 157.68 228.844V228.726C157.68 228.033 157.623 227.411 157.511 226.859C157.403 226.304 157.258 225.819 157.075 225.406C156.891 224.988 156.694 224.636 156.481 224.349C156.268 224.062 156.061 223.839 155.859 223.678L156.134 222.94C156.433 223.081 156.744 223.317 157.069 223.645C157.398 223.972 157.702 224.384 157.982 224.88C158.265 225.372 158.495 225.942 158.67 226.591C158.849 227.239 158.939 227.955 158.939 228.738Z" fill="#525252"/>
<path d="M28.8205 230.985H28.9325C29.4476 230.985 29.8768 230.918 30.2202 230.784C30.5674 230.646 30.8436 230.456 31.0489 230.214C31.2542 229.971 31.4016 229.686 31.4912 229.358C31.5808 229.03 31.6256 228.674 31.6256 228.29V226.887C31.6256 226.555 31.5901 226.264 31.5192 226.015C31.4521 225.761 31.355 225.551 31.2281 225.384C31.1049 225.212 30.9612 225.083 30.7969 224.997C30.6365 224.912 30.4629 224.869 30.2763 224.869C30.0709 224.869 29.8862 224.916 29.722 225.009C29.5614 225.098 29.4252 225.223 29.3132 225.384C29.205 225.54 29.121 225.724 29.0613 225.937C29.0053 226.145 28.9772 226.369 28.9772 226.608C28.9772 226.832 29.0034 227.048 29.0557 227.256C29.1116 227.461 29.1938 227.644 29.3021 227.804C29.4103 227.964 29.5465 228.091 29.7107 228.184C29.875 228.277 30.0672 228.324 30.2874 228.324C30.4965 228.324 30.6887 228.285 30.8641 228.206C31.0396 228.125 31.1926 228.015 31.3232 227.877C31.4539 227.738 31.5566 227.584 31.6312 227.413C31.7059 227.242 31.7469 227.066 31.7544 226.887L32.2695 227.044C32.2695 227.327 32.2098 227.606 32.0903 227.882C31.9746 228.154 31.8122 228.404 31.6032 228.632C31.3979 228.855 31.1571 229.034 30.8809 229.168C30.6084 229.302 30.3117 229.37 29.9907 229.37C29.6025 229.37 29.2591 229.296 28.9605 229.151C28.6656 229.002 28.4193 228.801 28.2214 228.548C28.0273 228.294 27.8817 228.003 27.7847 227.675C27.6876 227.348 27.6392 227.003 27.6392 226.641C27.6392 226.25 27.6989 225.883 27.8183 225.54C27.9378 225.197 28.1113 224.895 28.339 224.634C28.5667 224.369 28.8429 224.165 29.1677 224.019C29.4961 223.87 29.8675 223.795 30.2818 223.795C30.7223 223.795 31.1086 223.881 31.4408 224.052C31.773 224.224 32.053 224.461 32.2806 224.763C32.5084 225.065 32.6801 225.415 32.7958 225.813C32.9115 226.213 32.9693 226.641 32.9693 227.1V227.575C32.9693 228.056 32.9264 228.519 32.8406 228.967C32.7547 229.41 32.6148 229.822 32.4206 230.202C32.2303 230.579 31.9783 230.911 31.6648 231.198C31.355 231.481 30.9743 231.702 30.5226 231.863C30.0747 232.019 29.5484 232.098 28.9437 232.098H28.8205V230.985Z" fill="#525252"/>
<path d="M50.4533 233.574C53.4086 233.574 55.8044 231.182 55.8044 228.231C55.8044 225.28 53.4086 222.888 50.4533 222.888C47.4979 222.888 45.1022 225.28 45.1022 228.231C45.1022 231.182 47.4979 233.574 50.4533 233.574Z" fill="#D55860"/>
<path d="M77.6576 250.653V251.1C77.6576 251.716 77.5773 252.267 77.4168 252.755C77.2562 253.244 77.0269 253.659 76.7288 254.002C76.4335 254.344 76.079 254.608 75.6647 254.79C75.2503 254.969 74.7912 255.058 74.2873 255.058C73.7871 255.058 73.3299 254.969 72.9156 254.79C72.505 254.608 72.1485 254.344 71.8462 254.002C71.5438 253.659 71.3086 253.244 71.1407 252.755C70.9765 252.267 70.8943 251.716 70.8943 251.1V250.653C70.8943 250.038 70.9765 249.488 71.1407 249.004C71.3049 248.516 71.5363 248.1 71.8349 247.757C72.1373 247.411 72.4937 247.148 72.9043 246.969C73.3186 246.786 73.7759 246.695 74.2761 246.695C74.78 246.695 75.2391 246.786 75.6534 246.969C76.0677 247.148 76.4242 247.411 76.7226 247.757C77.0215 248.1 77.2509 248.516 77.4114 249.004C77.5758 249.488 77.6576 250.038 77.6576 250.653ZM76.2525 251.1V250.642C76.2525 250.187 76.2077 249.787 76.1181 249.44C76.0323 249.09 75.9035 248.797 75.7318 248.562C75.5638 248.323 75.3567 248.145 75.1103 248.026C74.864 247.902 74.5859 247.841 74.2761 247.841C73.9663 247.841 73.6901 247.902 73.4475 248.026C73.2048 248.145 72.9977 248.323 72.826 248.562C72.658 248.797 72.5292 249.09 72.4396 249.44C72.35 249.787 72.3052 250.187 72.3052 250.642V251.1C72.3052 251.555 72.35 251.958 72.4396 252.308C72.5292 252.658 72.6598 252.955 72.8315 253.197C73.007 253.435 73.2161 253.616 73.4586 253.739C73.7013 253.858 73.9774 253.918 74.2873 253.918C74.6008 253.918 74.8789 253.858 75.1215 253.739C75.3641 253.616 75.5695 253.435 75.7374 253.197C75.9054 252.955 76.0323 252.658 76.1181 252.308C76.2077 251.958 76.2525 251.555 76.2525 251.1ZM87.2498 246.807V254.947H85.8448L82.1884 249.116V254.947H80.7834V246.807H82.1884L85.8562 252.649V246.807H87.2498ZM95.7504 253.834V254.947H91.6576V253.834H95.7504ZM92.0498 246.807V254.947H90.6439V246.807H92.0498ZM100.057 246.807V254.947H98.6515V246.807H100.057ZM109.99 246.807V254.947H108.585L104.929 249.116V254.947H103.524V246.807H104.929L108.597 252.649V246.807H109.99ZM118.72 253.834V254.947H114.393V253.834H118.72ZM114.79 246.807V254.947H113.385V246.807H114.79ZM118.155 250.206V251.302H114.393V250.206H118.155ZM118.693 246.807V247.925H114.393V246.807H118.693ZM126.058 251.732V251.637C126.058 250.839 126.143 250.116 126.315 249.468C126.49 248.816 126.718 248.246 126.998 247.757C127.278 247.266 127.577 246.859 127.894 246.538C128.215 246.214 128.523 245.981 128.818 245.84L129.086 246.611C128.87 246.772 128.654 246.993 128.437 247.276C128.224 247.559 128.028 247.908 127.849 248.322C127.674 248.732 127.532 249.213 127.424 249.764C127.319 250.312 127.267 250.932 127.267 251.626V251.743C127.267 252.436 127.319 253.059 127.424 253.611C127.532 254.158 127.674 254.639 127.849 255.053C128.028 255.467 128.224 255.817 128.437 256.104C128.654 256.395 128.87 256.626 129.086 256.797L128.818 257.535C128.523 257.39 128.215 257.155 127.894 256.831C127.577 256.51 127.278 256.104 126.998 255.612C126.718 255.124 126.49 254.555 126.315 253.907C126.143 253.254 126.058 252.529 126.058 251.732ZM137.06 246.807V247.545L133.802 254.947H132.38L135.633 247.88H131.411V246.807H137.06ZM143.959 246.756H144.128V247.858H144.033C143.551 247.858 143.135 247.933 142.784 248.082C142.437 248.23 142.151 248.436 141.927 248.697C141.703 248.957 141.535 249.263 141.423 249.613C141.315 249.96 141.261 250.329 141.261 250.72V252C141.261 252.325 141.296 252.612 141.367 252.861C141.438 253.107 141.537 253.314 141.664 253.482C141.794 253.646 141.944 253.77 142.112 253.857C142.28 253.942 142.461 253.985 142.655 253.985C142.856 253.985 143.04 253.945 143.204 253.862C143.368 253.777 143.508 253.659 143.624 253.51C143.739 253.361 143.827 253.183 143.887 252.979C143.946 252.774 143.976 252.55 143.976 252.308C143.976 252.077 143.946 251.861 143.887 251.659C143.831 251.455 143.747 251.275 143.635 251.123C143.523 250.966 143.383 250.845 143.215 250.759C143.05 250.67 142.86 250.625 142.644 250.625C142.375 250.625 142.131 250.688 141.911 250.815C141.694 250.942 141.518 251.108 141.384 251.313C141.253 251.514 141.183 251.729 141.171 251.956L140.656 251.788C140.686 251.442 140.762 251.13 140.886 250.855C141.012 250.578 141.179 250.344 141.384 250.15C141.59 249.956 141.827 249.809 142.095 249.708C142.368 249.604 142.666 249.552 142.991 249.552C143.387 249.552 143.73 249.626 144.021 249.775C144.313 249.924 144.553 250.128 144.744 250.384C144.938 250.638 145.082 250.929 145.175 251.257C145.272 251.581 145.32 251.92 145.32 252.274C145.32 252.666 145.26 253.031 145.141 253.371C145.021 253.706 144.846 254 144.614 254.254C144.387 254.507 144.109 254.705 143.78 254.846C143.456 254.988 143.086 255.058 142.672 255.058C142.235 255.058 141.845 254.975 141.502 254.807C141.162 254.639 140.873 254.408 140.634 254.114C140.399 253.819 140.22 253.48 140.097 253.096C139.973 252.713 139.912 252.306 139.912 251.877V251.319C139.912 250.7 139.99 250.117 140.147 249.568C140.304 249.017 140.545 248.53 140.869 248.109C141.197 247.688 141.617 247.359 142.129 247.12C142.64 246.878 143.251 246.756 143.959 246.756ZM148.064 248.803V248.372C148.064 248.062 148.132 247.782 148.266 247.528C148.401 247.275 148.596 247.072 148.854 246.918C149.112 246.766 149.421 246.689 149.784 246.689C150.157 246.689 150.47 246.766 150.724 246.918C150.982 247.072 151.178 247.275 151.313 247.528C151.446 247.782 151.514 248.062 151.514 248.372V248.803C151.514 249.104 151.446 249.382 151.313 249.636C151.182 249.889 150.988 250.092 150.73 250.245C150.476 250.398 150.164 250.474 149.795 250.474C149.429 250.474 149.116 250.398 148.854 250.245C148.596 250.092 148.401 249.889 148.266 249.636C148.132 249.382 148.064 249.104 148.064 248.803ZM149 248.372V248.803C149 248.952 149.028 249.094 149.083 249.227C149.144 249.362 149.233 249.47 149.352 249.552C149.472 249.634 149.619 249.675 149.795 249.675C149.974 249.675 150.119 249.634 150.232 249.552C150.347 249.47 150.433 249.362 150.489 249.227C150.545 249.094 150.573 248.952 150.573 248.803V248.372C150.573 248.22 150.544 248.076 150.484 247.942C150.427 247.804 150.342 247.694 150.226 247.612C150.11 247.53 149.963 247.488 149.784 247.488C149.612 247.488 149.466 247.53 149.347 247.612C149.231 247.694 149.144 247.804 149.083 247.942C149.028 248.076 149 248.22 149 248.372ZM151.995 253.387V252.951C151.995 252.645 152.062 252.366 152.197 252.113C152.335 251.859 152.533 251.655 152.79 251.503C153.048 251.35 153.357 251.274 153.72 251.274C154.093 251.274 154.406 251.35 154.66 251.503C154.918 251.655 155.112 251.859 155.243 252.113C155.377 252.366 155.444 252.645 155.444 252.951V253.387C155.444 253.693 155.377 253.972 155.243 254.225C155.112 254.479 154.92 254.682 154.666 254.835C154.412 254.988 154.102 255.064 153.737 255.064C153.367 255.064 153.052 254.988 152.79 254.835C152.533 254.682 152.335 254.479 152.197 254.225C152.062 253.972 151.995 253.693 151.995 253.387ZM152.936 252.951V253.387C152.936 253.536 152.966 253.677 153.026 253.812C153.089 253.946 153.18 254.056 153.3 254.141C153.419 254.224 153.563 254.264 153.731 254.264C153.922 254.264 154.074 254.224 154.19 254.141C154.306 254.056 154.388 253.948 154.436 253.818C154.489 253.683 154.515 253.54 154.515 253.387V252.951C154.515 252.798 154.485 252.655 154.425 252.52C154.37 252.387 154.282 252.278 154.162 252.196C154.046 252.114 153.899 252.073 153.72 252.073C153.544 252.073 153.399 252.114 153.283 252.196C153.167 252.278 153.08 252.387 153.02 252.52C152.964 252.655 152.936 252.798 152.936 252.951ZM154.055 247.969L150.075 254.332L149.386 253.935L153.367 247.572L154.055 247.969ZM160.966 251.637V251.732C160.966 252.519 160.877 253.236 160.697 253.884C160.522 254.533 160.292 255.103 160.008 255.596C159.728 256.087 159.424 256.497 159.096 256.825C158.771 257.153 158.459 257.39 158.16 257.535L157.887 256.797C158.103 256.633 158.318 256.408 158.53 256.121C158.747 255.838 158.942 255.486 159.118 255.064C159.297 254.647 159.439 254.162 159.544 253.611C159.652 253.059 159.706 252.436 159.706 251.743V251.626C159.706 250.932 159.65 250.31 159.538 249.759C159.43 249.204 159.284 248.719 159.101 248.305C158.919 247.888 158.721 247.536 158.508 247.249C158.295 246.962 158.088 246.738 157.887 246.578L158.16 245.84C158.459 245.981 158.771 246.216 159.096 246.544C159.424 246.872 159.728 247.284 160.008 247.779C160.292 248.272 160.522 248.842 160.697 249.491C160.877 250.139 160.966 250.855 160.966 251.637Z" fill="#525252"/>
<path d="M14.9439 246.779V254.947H13.5946V248.378L11.5957 249.054V247.942L14.7815 246.779H14.9439ZM23.1811 246.779V254.947H21.8318V248.378L19.8329 249.054V247.942L23.0187 246.779H23.1811ZM31.8102 246.756H31.9782V247.858H31.883C31.4015 247.858 30.9853 247.933 30.6344 248.081C30.2873 248.23 30.0018 248.436 29.7778 248.697C29.5538 248.957 29.3859 249.263 29.2739 249.613C29.1656 249.96 29.1115 250.329 29.1115 250.72V252C29.1115 252.325 29.147 252.612 29.2179 252.861C29.2888 253.107 29.3878 253.314 29.5147 253.482C29.6453 253.646 29.7946 253.77 29.9626 253.857C30.1305 253.942 30.3116 253.985 30.5057 253.985C30.7072 253.985 30.8901 253.944 31.0543 253.862C31.2186 253.777 31.3586 253.659 31.4743 253.51C31.59 253.361 31.6777 253.183 31.7374 252.979C31.7971 252.774 31.827 252.55 31.827 252.308C31.827 252.077 31.7971 251.861 31.7374 251.659C31.6814 251.455 31.5975 251.275 31.4855 251.123C31.3735 250.966 31.2335 250.845 31.0656 250.759C30.9013 250.67 30.7109 250.625 30.4945 250.625C30.2257 250.625 29.9812 250.688 29.761 250.815C29.5445 250.942 29.369 251.108 29.2347 251.313C29.1041 251.514 29.0331 251.729 29.0219 251.956L28.5068 251.788C28.5367 251.442 28.6132 251.13 28.7364 250.855C28.8633 250.578 29.0294 250.344 29.2347 250.15C29.44 249.956 29.677 249.809 29.9457 249.708C30.2183 249.604 30.5168 249.552 30.8416 249.552C31.2373 249.552 31.5806 249.626 31.8718 249.775C32.1629 249.924 32.4037 250.128 32.5941 250.384C32.7882 250.638 32.9319 250.929 33.0252 251.257C33.1222 251.581 33.1708 251.92 33.1708 252.274C33.1708 252.666 33.1111 253.031 32.9916 253.37C32.8722 253.706 32.6967 254 32.4653 254.254C32.2376 254.507 31.9595 254.705 31.631 254.846C31.3063 254.988 30.9368 255.058 30.5224 255.058C30.0857 255.058 29.6957 254.975 29.3523 254.807C29.0126 254.639 28.7233 254.408 28.4844 254.114C28.2493 253.819 28.0701 253.48 27.9469 253.096C27.8238 252.712 27.7622 252.306 27.7622 251.877V251.319C27.7622 250.7 27.8405 250.116 27.9973 249.568C28.1541 249.017 28.3948 248.53 28.7196 248.109C29.048 247.688 29.468 247.359 29.9794 247.12C30.4907 246.878 31.101 246.756 31.8102 246.756Z" fill="#525252"/>
<path d="M50.4533 256.473C53.4086 256.473 55.8044 254.081 55.8044 251.13C55.8044 248.179 53.4086 245.787 50.4533 245.787C47.4979 245.787 45.1022 248.179 45.1022 251.13C45.1022 254.081 47.4979 256.473 50.4533 256.473Z" fill="#7CBE8B"/>
</g>
<defs>
<clipPath id="clip0_102_3">
<rect width="172" height="258" fill="white"/>
</clipPath>
</defs>
</svg>
